<?xml version="1.0" encoding="utf-8"?><svg viewBox="0 0 1920 502.66" xmlns="http://www.w3.org/2000/svg" xmlns:xlink="http://www.w3.org/1999/xlink"><style>:root>svg{display:none}:root>svg:target{display:block}</style><svg viewBox="0 0 30 30" id="Facebook" xmlns="http://www.w3.org/2000/svg"><path fill-rule="evenodd" clip-rule="evenodd" d="M15 0C6.716 0 0 6.716 0 15c0 8.284 6.716 15 15 15 8.284 0 15-6.716 15-15 0-8.284-6.716-15-15-15zm1.564 15.659v8.16h-3.377v-8.16H11.5v-2.812h1.687v-1.688c0-2.295.953-3.659 3.659-3.659h2.253v2.813H17.69c-1.053 0-1.123.393-1.123 1.126l-.003 1.408h2.55l-.298 2.812h-2.252z"/></svg><svg viewBox="0 0 3 13" id="i" xmlns="http://www.w3.org/2000/svg"><path d="M1.549 1.87c-.594 0-.89-.28-.89-.84 0-.55.296-.824.89-.824.593 0 .89.275.89.824 0 .56-.297.84-.89.84zm0 10.214c-.448 0-.672-.246-.672-.74v-6.87c0-.482.224-.723.672-.723.459 0 .689.24.689.722v6.872c0 .492-.23.739-.69.739z"/></svg><svg viewBox="0 0 502.664 502.664" id="icon" xmlns="http://www.w3.org/2000/svg"><path d="M153.821 358.226L0 274.337v-46.463l153.821-83.414v54.574L46.636 250.523l107.185 53.431v54.272zm26.273 29.358L282.103 115.08h32.227L212.084 387.584h-31.99zm168.749-29.358v-54.272l107.164-52.999-107.164-52.59v-53.927l153.821 83.522v46.183l-153.821 84.083z"/></svg><svg viewBox="0 0 30 30" id="in" xmlns="http://www.w3.org/2000/svg"><path fill-rule="evenodd" clip-rule="evenodd" d="M15 0C6.716 0 0 6.716 0 15c0 8.284 6.716 15 15 15 8.284 0 15-6.716 15-15 0-8.284-6.716-15-15-15zm-3.298 7.048C12.555 7.01 12.828 7 15.001 7h-.003c2.174 0 2.445.01 3.299.048.851.04 1.433.174 1.943.372.527.204.972.478 1.417.923.445.444.718.89.923 1.417.197.508.332 1.09.372 1.941.038.854.048 1.126.048 3.3 0 2.172-.01 2.444-.048 3.297-.04.852-.175 1.433-.372 1.942a3.927 3.927 0 01-.923 1.417c-.445.445-.89.719-1.416.923-.51.198-1.091.333-1.943.372-.854.039-1.125.048-3.298.048s-2.445-.01-3.299-.048c-.851-.04-1.433-.174-1.942-.372a3.918 3.918 0 01-1.416-.923 3.92 3.92 0 01-.923-1.417c-.198-.509-.332-1.09-.372-1.942C7.01 17.445 7 17.173 7 15s.01-2.445.048-3.299c.038-.851.173-1.433.372-1.941a3.92 3.92 0 01.923-1.417A3.918 3.918 0 019.76 7.42c.509-.198 1.09-.333 1.942-.372z"/><path fill-rule="evenodd" clip-rule="evenodd" d="M14.283 8.442h.718c2.136 0 2.389.007 3.232.046.78.035 1.204.166 1.486.275.373.145.64.319.92.599.28.28.453.546.598.92.11.281.24.705.275 1.485.039.843.047 1.096.047 3.231s-.008 2.389-.047 3.232c-.035.78-.166 1.203-.275 1.485a2.47 2.47 0 01-.599.919c-.28.28-.546.453-.92.598-.28.11-.704.24-1.485.276-.843.038-1.096.047-3.232.047s-2.39-.009-3.233-.047c-.78-.036-1.203-.166-1.485-.276a2.478 2.478 0 01-.92-.598 2.48 2.48 0 01-.6-.92c-.109-.281-.24-.705-.275-1.485-.038-.843-.046-1.096-.046-3.233 0-2.136.008-2.388.046-3.231.036-.78.166-1.204.276-1.486.145-.373.319-.64.599-.92.28-.28.546-.453.92-.598.282-.11.705-.24 1.485-.276.738-.034 1.024-.044 2.515-.045v.002zm4.988 1.328a.96.96 0 100 1.92.96.96 0 000-1.92zM10.893 15a4.109 4.109 0 118.217 0 4.109 4.109 0 01-8.217 0z"/><path fill-rule="evenodd" clip-rule="evenodd" d="M15 12.334a2.667 2.667 0 110 5.333 2.667 2.667 0 010-5.334z"/></svg><svg viewBox="0 0 40 40" id="next-arrow" xmlns="http://www.w3.org/2000/svg"><path fill-rule="evenodd" clip-rule="evenodd" d="M36.667 20c0 9.2-7.484 16.667-16.667 16.667l-.466-.007c-8.985-.247-16.2-7.616-16.2-16.66C3.334 10.817 10.8 3.333 20 3.333c9.183 0 16.667 7.484 16.667 16.667zM16.7 13.333c-.483.5-.483 1.284.017 1.767l4.917 4.9-4.917 4.9c-.5.483-.5 1.283-.017 1.767.5.5 1.284.5 1.767 0l5.817-5.784a1.249 1.249 0 000-1.766l-5.817-5.784a1.173 1.173 0 00-.867-.366c-.333 0-.65.116-.9.366z"/></svg><svg viewBox="0 0 1920 460" id="order" xmlns="http://www.w3.org/2000/svg"><mask id="fa" maskUnits="userSpaceOnUse" x="0" y="0" width="1920" height="460"><rect width="1920" height="460" rx="20"/></mask><g mask="url(#fa)" fill-opacity=".08"><path d="M-10 389.149c0 5.269 1.263 10.155 3.788 14.656 2.635 4.392 6.203 7.905 10.704 10.54 4.501 2.635 9.551 3.952 15.15 3.952 5.71 0 10.76-1.317 15.151-3.952 4.502-2.635 8.015-6.148 10.54-10.54 2.525-4.501 3.787-9.387 3.787-14.656 0-5.49-1.262-10.43-3.787-14.822-2.525-4.391-6.038-7.85-10.54-10.375-4.391-2.635-9.441-3.952-15.15-3.952-5.6 0-10.65 1.317-15.151 3.952-4.501 2.525-8.07 5.984-10.704 10.375-2.525 4.392-3.788 9.332-3.788 14.822zm17.786 0c0-2.306.494-4.392 1.482-6.258.988-1.867 2.36-3.349 4.117-4.447 1.756-1.207 3.842-1.811 6.258-1.811 2.415 0 4.446.604 6.093 1.811 1.756 1.098 3.129 2.58 4.117 4.447.988 1.866 1.482 3.952 1.482 6.258a13.81 13.81 0 01-1.482 6.257c-.988 1.867-2.36 3.349-4.117 4.447-1.647 1.098-3.678 1.647-6.093 1.647-2.416 0-4.502-.549-6.258-1.647-1.757-1.098-3.13-2.58-4.117-4.447a13.81 13.81 0 01-1.482-6.257zm57.144 62.249c0 5.379 1.262 10.265 3.787 14.656 2.635 4.392 6.203 7.905 10.705 10.54 4.501 2.635 9.551 3.952 15.15 3.952 5.709 0 10.759-1.317 15.151-3.952 4.501-2.635 8.014-6.148 10.54-10.54 2.525-4.391 3.787-9.277 3.787-14.656 0-5.38-1.262-10.265-3.787-14.657-2.526-4.501-6.039-8.014-10.54-10.539-4.392-2.635-9.442-3.953-15.15-3.953-5.6 0-10.65 1.318-15.151 3.953-4.502 2.525-8.07 6.038-10.705 10.539-2.525 4.392-3.787 9.277-3.787 14.657zm17.785 0c0-2.306.494-4.392 1.483-6.258.988-1.866 2.36-3.349 4.117-4.446 1.756-1.098 3.842-1.647 6.257-1.647 2.416 0 4.447.549 6.094 1.647 1.756 1.097 3.128 2.58 4.117 4.446.988 1.866 1.482 3.952 1.482 6.258 0 2.196-.494 4.282-1.482 6.258-.989 1.866-2.361 3.348-4.117 4.446-1.647 1.098-3.678 1.647-6.094 1.647-2.415 0-4.5-.549-6.258-1.647-1.756-1.098-3.128-2.58-4.116-4.446a13.81 13.81 0 01-1.483-6.258zm5.6-88.763L4.326 477.911H25.9l83.988-115.276H88.314zm44.494 26.514c0 5.269 1.263 10.155 3.788 14.656 2.635 4.392 6.203 7.905 10.704 10.54 4.501 2.635 9.552 3.952 15.151 3.952 5.709 0 10.759-1.317 15.15-3.952 4.502-2.635 8.015-6.148 10.54-10.54 2.525-4.501 3.788-9.387 3.788-14.656 0-5.49-1.263-10.43-3.788-14.822-2.525-4.391-6.038-7.85-10.54-10.375-4.391-2.635-9.441-3.952-15.15-3.952-5.599 0-10.65 1.317-15.151 3.952-4.501 2.525-8.069 5.984-10.704 10.375-2.525 4.392-3.788 9.332-3.788 14.822zm17.786 0c0-2.306.494-4.392 1.482-6.258.988-1.867 2.36-3.349 4.117-4.447 1.756-1.207 3.842-1.811 6.258-1.811 2.415 0 4.446.604 6.093 1.811 1.757 1.098 3.129 2.58 4.117 4.447.988 1.866 1.482 3.952 1.482 6.258a13.81 13.81 0 01-1.482 6.257c-.988 1.867-2.36 3.349-4.117 4.447-1.647 1.098-3.678 1.647-6.093 1.647-2.416 0-4.502-.549-6.258-1.647-1.757-1.098-3.129-2.58-4.117-4.447a13.81 13.81 0 01-1.482-6.257zm57.144 62.249c0 5.379 1.263 10.265 3.788 14.656 2.634 4.392 6.203 7.905 10.704 10.54 4.501 2.635 9.551 3.952 15.151 3.952 5.708 0 10.759-1.317 15.15-3.952 4.501-2.635 8.015-6.148 10.54-10.54 2.525-4.391 3.787-9.277 3.787-14.656 0-5.38-1.262-10.265-3.787-14.657-2.525-4.501-6.039-8.014-10.54-10.539-4.391-2.635-9.442-3.953-15.15-3.953-5.6 0-10.65 1.318-15.151 3.953-4.501 2.525-8.07 6.038-10.704 10.539-2.525 4.392-3.788 9.277-3.788 14.657zm17.785 0c0-2.306.495-4.392 1.483-6.258.988-1.866 2.36-3.349 4.117-4.446 1.756-1.098 3.842-1.647 6.258-1.647 2.415 0 4.446.549 6.093 1.647 1.756 1.097 3.129 2.58 4.117 4.446.988 1.866 1.482 3.952 1.482 6.258 0 2.196-.494 4.282-1.482 6.258-.988 1.866-2.361 3.348-4.117 4.446-1.647 1.098-3.678 1.647-6.093 1.647-2.416 0-4.502-.549-6.258-1.647-1.757-1.098-3.129-2.58-4.117-4.446a13.812 13.812 0 01-1.483-6.258zm5.6-88.763l-83.988 115.276h21.574l83.987-115.276h-21.573zm44.494 26.514c0 5.269 1.263 10.155 3.788 14.656 2.635 4.392 6.203 7.905 10.704 10.54 4.502 2.635 9.552 3.952 15.151 3.952 5.709 0 10.759-1.317 15.151-3.952 4.501-2.635 8.014-6.148 10.539-10.54 2.525-4.501 3.788-9.387 3.788-14.656 0-5.49-1.263-10.43-3.788-14.822-2.525-4.391-6.038-7.85-10.539-10.375-4.392-2.635-9.442-3.952-15.151-3.952-5.599 0-10.649 1.317-15.151 3.952-4.501 2.525-8.069 5.984-10.704 10.375-2.525 4.392-3.788 9.332-3.788 14.822zm17.786 0c0-2.306.494-4.392 1.482-6.258.988-1.867 2.36-3.349 4.117-4.447 1.757-1.207 3.843-1.811 6.258-1.811s4.446.604 6.093 1.811c1.757 1.098 3.129 2.58 4.117 4.447.988 1.866 1.482 3.952 1.482 6.258a13.81 13.81 0 01-1.482 6.257c-.988 1.867-2.36 3.349-4.117 4.447-1.647 1.098-3.678 1.647-6.093 1.647s-4.501-.549-6.258-1.647c-1.757-1.098-3.129-2.58-4.117-4.447a13.81 13.81 0 01-1.482-6.257zm57.144 62.249c0 5.379 1.263 10.265 3.788 14.656 2.635 4.392 6.203 7.905 10.704 10.54 4.501 2.635 9.552 3.952 15.151 3.952 5.709 0 10.759-1.317 15.15-3.952 4.502-2.635 8.015-6.148 10.54-10.54 2.525-4.391 3.788-9.277 3.788-14.656 0-5.38-1.263-10.265-3.788-14.657-2.525-4.501-6.038-8.014-10.54-10.539-4.391-2.635-9.441-3.953-15.15-3.953-5.599 0-10.65 1.318-15.151 3.953-4.501 2.525-8.069 6.038-10.704 10.539-2.525 4.392-3.788 9.277-3.788 14.657zm17.786 0c0-2.306.494-4.392 1.482-6.258.988-1.866 2.36-3.349 4.117-4.446 1.756-1.098 3.842-1.647 6.258-1.647 2.415 0 4.446.549 6.093 1.647 1.756 1.097 3.129 2.58 4.117 4.446.988 1.866 1.482 3.952 1.482 6.258 0 2.196-.494 4.282-1.482 6.258-.988 1.866-2.361 3.348-4.117 4.446-1.647 1.098-3.678 1.647-6.093 1.647-2.416 0-4.502-.549-6.258-1.647-1.757-1.098-3.129-2.58-4.117-4.446a13.811 13.811 0 01-1.482-6.258zm5.599-88.763l-83.987 115.276h21.573l83.987-115.276h-21.573zm44.495 26.514c0 5.269 1.262 10.155 3.787 14.656 2.635 4.392 6.203 7.905 10.704 10.54 4.502 2.635 9.552 3.952 15.151 3.952 5.709 0 10.759-1.317 15.151-3.952 4.501-2.635 8.014-6.148 10.539-10.54 2.525-4.501 3.788-9.387 3.788-14.656 0-5.49-1.263-10.43-3.788-14.822-2.525-4.391-6.038-7.85-10.539-10.375-4.392-2.635-9.442-3.952-15.151-3.952-5.599 0-10.649 1.317-15.151 3.952-4.501 2.525-8.069 5.984-10.704 10.375-2.525 4.392-3.787 9.332-3.787 14.822zm17.785 0c0-2.306.494-4.392 1.482-6.258.988-1.867 2.361-3.349 4.117-4.447 1.757-1.207 3.843-1.811 6.258-1.811s4.446.604 6.093 1.811c1.757 1.098 3.129 2.58 4.117 4.447.988 1.866 1.482 3.952 1.482 6.258a13.81 13.81 0 01-1.482 6.257c-.988 1.867-2.36 3.349-4.117 4.447-1.647 1.098-3.678 1.647-6.093 1.647s-4.501-.549-6.258-1.647c-1.756-1.098-3.129-2.58-4.117-4.447a13.81 13.81 0 01-1.482-6.257zm57.144 62.249c0 5.379 1.263 10.265 3.788 14.656 2.635 4.392 6.203 7.905 10.704 10.54 4.502 2.635 9.552 3.952 15.151 3.952 5.709 0 10.759-1.317 15.151-3.952 4.501-2.635 8.014-6.148 10.539-10.54 2.525-4.391 3.788-9.277 3.788-14.656 0-5.38-1.263-10.265-3.788-14.657-2.525-4.501-6.038-8.014-10.539-10.539-4.392-2.635-9.442-3.953-15.151-3.953-5.599 0-10.649 1.318-15.151 3.953-4.501 2.525-8.069 6.038-10.704 10.539-2.525 4.392-3.788 9.277-3.788 14.657zm17.786 0c0-2.306.494-4.392 1.482-6.258.988-1.866 2.36-3.349 4.117-4.446 1.757-1.098 3.843-1.647 6.258-1.647s4.446.549 6.093 1.647c1.757 1.097 3.129 2.58 4.117 4.446.988 1.866 1.482 3.952 1.482 6.258 0 2.196-.494 4.282-1.482 6.258-.988 1.866-2.36 3.348-4.117 4.446-1.647 1.098-3.678 1.647-6.093 1.647s-4.501-.549-6.258-1.647c-1.757-1.098-3.129-2.58-4.117-4.446a13.811 13.811 0 01-1.482-6.258zm5.599-88.763l-83.987 115.276h21.573l83.987-115.276h-21.573zm44.495 26.514c0 5.269 1.262 10.155 3.787 14.656 2.635 4.392 6.203 7.905 10.705 10.54 4.501 2.635 9.551 3.952 15.15 3.952 5.709 0 10.759-1.317 15.151-3.952 4.501-2.635 8.014-6.148 10.539-10.54 2.526-4.501 3.788-9.387 3.788-14.656 0-5.49-1.262-10.43-3.788-14.822-2.525-4.391-6.038-7.85-10.539-10.375-4.392-2.635-9.442-3.952-15.151-3.952-5.599 0-10.649 1.317-15.15 3.952-4.502 2.525-8.07 5.984-10.705 10.375-2.525 4.392-3.787 9.332-3.787 14.822zm17.785 0c0-2.306.494-4.392 1.482-6.258.988-1.867 2.361-3.349 4.117-4.447 1.757-1.207 3.843-1.811 6.258-1.811 2.416 0 4.447.604 6.093 1.811 1.757 1.098 3.129 2.58 4.117 4.447.989 1.866 1.483 3.952 1.483 6.258 0 2.195-.494 4.281-1.483 6.257-.988 1.867-2.36 3.349-4.117 4.447-1.646 1.098-3.677 1.647-6.093 1.647-2.415 0-4.501-.549-6.258-1.647-1.756-1.098-3.129-2.58-4.117-4.447a13.81 13.81 0 01-1.482-6.257zm57.145 62.249c0 5.379 1.262 10.265 3.787 14.656 2.635 4.392 6.203 7.905 10.704 10.54 4.502 2.635 9.552 3.952 15.151 3.952 5.709 0 10.759-1.317 15.151-3.952 4.501-2.635 8.014-6.148 10.539-10.54 2.525-4.391 3.788-9.277 3.788-14.656 0-5.38-1.263-10.265-3.788-14.657-2.525-4.501-6.038-8.014-10.539-10.539-4.392-2.635-9.442-3.953-15.151-3.953-5.599 0-10.649 1.318-15.151 3.953-4.501 2.525-8.069 6.038-10.704 10.539-2.525 4.392-3.787 9.277-3.787 14.657zm17.785 0c0-2.306.494-4.392 1.482-6.258.988-1.866 2.361-3.349 4.117-4.446 1.757-1.098 3.843-1.647 6.258-1.647s4.446.549 6.093 1.647c1.757 1.097 3.129 2.58 4.117 4.446.988 1.866 1.482 3.952 1.482 6.258 0 2.196-.494 4.282-1.482 6.258-.988 1.866-2.36 3.348-4.117 4.446-1.647 1.098-3.678 1.647-6.093 1.647s-4.501-.549-6.258-1.647c-1.756-1.098-3.129-2.58-4.117-4.446a13.811 13.811 0 01-1.482-6.258zm5.599-88.763l-83.987 115.276h21.573l83.987-115.276h-21.573zm44.495 26.514c0 5.269 1.262 10.155 3.788 14.656 2.634 4.392 6.203 7.905 10.704 10.54 4.501 2.635 9.551 3.952 15.15 3.952 5.709 0 10.76-1.317 15.151-3.952 4.501-2.635 8.015-6.148 10.54-10.54 2.525-4.501 3.787-9.387 3.787-14.656 0-5.49-1.262-10.43-3.787-14.822-2.525-4.391-6.039-7.85-10.54-10.375-4.391-2.635-9.442-3.952-15.151-3.952-5.599 0-10.649 1.317-15.15 3.952-4.501 2.525-8.07 5.984-10.704 10.375-2.526 4.392-3.788 9.332-3.788 14.822zm17.785 0c0-2.306.495-4.392 1.483-6.258.988-1.867 2.36-3.349 4.117-4.447 1.756-1.207 3.842-1.811 6.257-1.811 2.416 0 4.447.604 6.094 1.811 1.756 1.098 3.129 2.58 4.117 4.447.988 1.866 1.482 3.952 1.482 6.258a13.81 13.81 0 01-1.482 6.257c-.988 1.867-2.361 3.349-4.117 4.447-1.647 1.098-3.678 1.647-6.094 1.647-2.415 0-4.501-.549-6.257-1.647-1.757-1.098-3.129-2.58-4.117-4.447a13.811 13.811 0 01-1.483-6.257zm57.145 62.249c0 5.379 1.262 10.265 3.787 14.656 2.635 4.392 6.203 7.905 10.705 10.54 4.501 2.635 9.551 3.952 15.15 3.952 5.709 0 10.759-1.317 15.151-3.952 4.501-2.635 8.014-6.148 10.539-10.54 2.526-4.391 3.788-9.277 3.788-14.656 0-5.38-1.262-10.265-3.788-14.657-2.525-4.501-6.038-8.014-10.539-10.539-4.392-2.635-9.442-3.953-15.151-3.953-5.599 0-10.649 1.318-15.15 3.953-4.502 2.525-8.07 6.038-10.705 10.539-2.525 4.392-3.787 9.277-3.787 14.657zm17.785 0c0-2.306.494-4.392 1.482-6.258.988-1.866 2.361-3.349 4.117-4.446 1.757-1.098 3.843-1.647 6.258-1.647 2.416 0 4.447.549 6.093 1.647 1.757 1.097 3.129 2.58 4.117 4.446.989 1.866 1.483 3.952 1.483 6.258a13.8 13.8 0 01-1.483 6.258c-.988 1.866-2.36 3.348-4.117 4.446-1.646 1.098-3.677 1.647-6.093 1.647-2.415 0-4.501-.549-6.258-1.647-1.756-1.098-3.129-2.58-4.117-4.446a13.811 13.811 0 01-1.482-6.258zm5.599-88.763l-83.987 115.276h21.573l83.988-115.276H802.36zm44.495 26.514c0 5.269 1.263 10.155 3.788 14.656 2.635 4.392 6.203 7.905 10.704 10.54 4.501 2.635 9.551 3.952 15.151 3.952 5.709 0 10.759-1.317 15.15-3.952 4.502-2.635 8.015-6.148 10.54-10.54 2.525-4.501 3.787-9.387 3.787-14.656 0-5.49-1.262-10.43-3.787-14.822-2.525-4.391-6.038-7.85-10.54-10.375-4.391-2.635-9.441-3.952-15.15-3.952-5.6 0-10.65 1.317-15.151 3.952-4.501 2.525-8.069 5.984-10.704 10.375-2.525 4.392-3.788 9.332-3.788 14.822zm17.786 0c0-2.306.494-4.392 1.482-6.258.988-1.867 2.36-3.349 4.117-4.447 1.756-1.207 3.842-1.811 6.258-1.811 2.415 0 4.446.604 6.093 1.811 1.756 1.098 3.129 2.58 4.117 4.447.988 1.866 1.482 3.952 1.482 6.258a13.81 13.81 0 01-1.482 6.257c-.988 1.867-2.361 3.349-4.117 4.447-1.647 1.098-3.678 1.647-6.093 1.647-2.416 0-4.502-.549-6.258-1.647-1.757-1.098-3.129-2.58-4.117-4.447a13.81 13.81 0 01-1.482-6.257zm57.144 62.249c0 5.379 1.262 10.265 3.788 14.656 2.634 4.392 6.203 7.905 10.704 10.54 4.501 2.635 9.551 3.952 15.15 3.952 5.709 0 10.76-1.317 15.151-3.952 4.501-2.635 8.015-6.148 10.54-10.54 2.525-4.391 3.787-9.277 3.787-14.656 0-5.38-1.262-10.265-3.787-14.657-2.525-4.501-6.039-8.014-10.54-10.539-4.391-2.635-9.442-3.953-15.151-3.953-5.599 0-10.649 1.318-15.15 3.953-4.501 2.525-8.07 6.038-10.704 10.539-2.526 4.392-3.788 9.277-3.788 14.657zm17.785 0c0-2.306.494-4.392 1.482-6.258.989-1.866 2.361-3.349 4.118-4.446 1.756-1.098 3.842-1.647 6.257-1.647 2.416 0 4.447.549 6.094 1.647 1.756 1.097 3.129 2.58 4.117 4.446.988 1.866 1.482 3.952 1.482 6.258 0 2.196-.494 4.282-1.482 6.258-.988 1.866-2.361 3.348-4.117 4.446-1.647 1.098-3.678 1.647-6.094 1.647-2.415 0-4.501-.549-6.257-1.647-1.757-1.098-3.129-2.58-4.118-4.446a13.811 13.811 0 01-1.482-6.258zm5.6-88.763l-83.988 115.276h21.573l83.988-115.276H945.17zm44.494 26.514c0 5.269 1.263 10.155 3.788 14.656 2.635 4.392 6.203 7.905 10.708 10.54 4.5 2.635 9.55 3.952 15.15 3.952 5.71 0 10.76-1.317 15.15-3.952 4.5-2.635 8.01-6.148 10.54-10.54 2.52-4.501 3.78-9.387 3.78-14.656 0-5.49-1.26-10.43-3.78-14.822-2.53-4.391-6.04-7.85-10.54-10.375-4.39-2.635-9.44-3.952-15.15-3.952-5.6 0-10.65 1.317-15.15 3.952-4.505 2.525-8.073 5.984-10.708 10.375-2.525 4.392-3.788 9.332-3.788 14.822zm17.786 0c0-2.306.49-4.392 1.48-6.258.99-1.867 2.36-3.349 4.12-4.447 1.76-1.207 3.84-1.811 6.26-1.811 2.41 0 4.44.604 6.09 1.811 1.76 1.098 3.13 2.58 4.12 4.447.99 1.866 1.48 3.952 1.48 6.258 0 2.195-.49 4.281-1.48 6.257-.99 1.867-2.36 3.349-4.12 4.447-1.65 1.098-3.68 1.647-6.09 1.647-2.42 0-4.5-.549-6.26-1.647-1.76-1.098-3.13-2.58-4.12-4.447a13.782 13.782 0 01-1.48-6.257zm57.14 62.249c0 5.379 1.27 10.265 3.79 14.656 2.64 4.392 6.2 7.905 10.71 10.54 4.5 2.635 9.55 3.952 15.15 3.952 5.71 0 10.76-1.317 15.15-3.952 4.5-2.635 8.01-6.148 10.54-10.54 2.52-4.391 3.78-9.277 3.78-14.656 0-5.38-1.26-10.265-3.78-14.657-2.53-4.501-6.04-8.014-10.54-10.539-4.39-2.635-9.44-3.953-15.15-3.953-5.6 0-10.65 1.318-15.15 3.953-4.51 2.525-8.07 6.038-10.71 10.539-2.52 4.392-3.79 9.277-3.79 14.657zm17.79 0c0-2.306.49-4.392 1.48-6.258.99-1.866 2.36-3.349 4.12-4.446 1.76-1.098 3.84-1.647 6.26-1.647 2.41 0 4.44.549 6.09 1.647 1.76 1.097 3.13 2.58 4.12 4.446.98 1.866 1.48 3.952 1.48 6.258 0 2.196-.5 4.282-1.48 6.258-.99 1.866-2.36 3.348-4.12 4.446-1.65 1.098-3.68 1.647-6.09 1.647-2.42 0-4.5-.549-6.26-1.647-1.76-1.098-3.13-2.58-4.12-4.446a13.783 13.783 0 01-1.48-6.258zm5.6-88.763l-83.99 115.276h21.57l83.99-115.276h-21.57zm44.49 26.514c0 5.269 1.27 10.155 3.79 14.656 2.64 4.392 6.2 7.905 10.71 10.54 4.5 2.635 9.55 3.952 15.15 3.952 5.7 0 10.76-1.317 15.15-3.952 4.5-2.635 8.01-6.148 10.54-10.54 2.52-4.501 3.78-9.387 3.78-14.656 0-5.49-1.26-10.43-3.78-14.822-2.53-4.391-6.04-7.85-10.54-10.375-4.39-2.635-9.45-3.952-15.15-3.952-5.6 0-10.65 1.317-15.15 3.952-4.51 2.525-8.07 5.984-10.71 10.375-2.52 4.392-3.79 9.332-3.79 14.822zm17.79 0c0-2.306.49-4.392 1.48-6.258.99-1.867 2.36-3.349 4.12-4.447 1.75-1.207 3.84-1.811 6.26-1.811 2.41 0 4.44.604 6.09 1.811 1.76 1.098 3.13 2.58 4.12 4.447.98 1.866 1.48 3.952 1.48 6.258 0 2.195-.5 4.281-1.48 6.257-.99 1.867-2.36 3.349-4.12 4.447-1.65 1.098-3.68 1.647-6.09 1.647-2.42 0-4.51-.549-6.26-1.647-1.76-1.098-3.13-2.58-4.12-4.447a13.782 13.782 0 01-1.48-6.257zm57.14 62.249c0 5.379 1.27 10.265 3.79 14.656 2.64 4.392 6.2 7.905 10.71 10.54 4.5 2.635 9.55 3.952 15.15 3.952 5.7 0 10.75-1.317 15.15-3.952 4.5-2.635 8.01-6.148 10.54-10.54 2.52-4.391 3.78-9.277 3.78-14.656 0-5.38-1.26-10.265-3.78-14.657-2.53-4.501-6.04-8.014-10.54-10.539-4.4-2.635-9.45-3.953-15.15-3.953-5.6 0-10.65 1.318-15.15 3.953-4.51 2.525-8.07 6.038-10.71 10.539-2.52 4.392-3.79 9.277-3.79 14.657zm17.79 0c0-2.306.49-4.392 1.48-6.258.99-1.866 2.36-3.349 4.12-4.446 1.75-1.098 3.84-1.647 6.26-1.647 2.41 0 4.44.549 6.09 1.647 1.76 1.097 3.13 2.58 4.12 4.446.98 1.866 1.48 3.952 1.48 6.258 0 2.196-.5 4.282-1.48 6.258-.99 1.866-2.36 3.348-4.12 4.446-1.65 1.098-3.68 1.647-6.09 1.647-2.42 0-4.51-.549-6.26-1.647-1.76-1.098-3.13-2.58-4.12-4.446a13.783 13.783 0 01-1.48-6.258zm5.6-88.763l-83.99 115.276h21.57l83.99-115.276h-21.57zm44.49 26.514c0 5.269 1.27 10.155 3.79 14.656 2.64 4.392 6.2 7.905 10.7 10.54 4.51 2.635 9.56 3.952 15.16 3.952 5.7 0 10.75-1.317 15.15-3.952 4.5-2.635 8.01-6.148 10.54-10.54 2.52-4.501 3.78-9.387 3.78-14.656 0-5.49-1.26-10.43-3.78-14.822-2.53-4.391-6.04-7.85-10.54-10.375-4.4-2.635-9.45-3.952-15.15-3.952-5.6 0-10.65 1.317-15.16 3.952-4.5 2.525-8.06 5.984-10.7 10.375-2.52 4.392-3.79 9.332-3.79 14.822zm17.79 0c0-2.306.49-4.392 1.48-6.258.99-1.867 2.36-3.349 4.12-4.447 1.75-1.207 3.84-1.811 6.26-1.811 2.41 0 4.44.604 6.09 1.811a11.543 11.543 0 014.12 4.447c.98 1.866 1.48 3.952 1.48 6.258 0 2.195-.5 4.281-1.48 6.257a11.543 11.543 0 01-4.12 4.447c-1.65 1.098-3.68 1.647-6.09 1.647-2.42 0-4.51-.549-6.26-1.647-1.76-1.098-3.13-2.58-4.12-4.447a13.782 13.782 0 01-1.48-6.257zm57.14 62.249c0 5.379 1.26 10.265 3.79 14.656 2.63 4.392 6.2 7.905 10.7 10.54 4.51 2.635 9.56 3.952 15.15 3.952 5.71 0 10.76-1.317 15.16-3.952 4.5-2.635 8.01-6.148 10.54-10.54 2.52-4.391 3.78-9.277 3.78-14.656 0-5.38-1.26-10.265-3.78-14.657-2.53-4.501-6.04-8.014-10.54-10.539-4.4-2.635-9.45-3.953-15.16-3.953-5.59 0-10.64 1.318-15.15 3.953-4.5 2.525-8.07 6.038-10.7 10.539-2.53 4.392-3.79 9.277-3.79 14.657zm17.79 0c0-2.306.49-4.392 1.48-6.258.99-1.866 2.36-3.349 4.12-4.446 1.75-1.098 3.84-1.647 6.25-1.647 2.42 0 4.45.549 6.1 1.647a11.54 11.54 0 014.12 4.446c.98 1.866 1.48 3.952 1.48 6.258 0 2.196-.5 4.282-1.48 6.258a11.548 11.548 0 01-4.12 4.446c-1.65 1.098-3.68 1.647-6.1 1.647-2.41 0-4.5-.549-6.25-1.647-1.76-1.098-3.13-2.58-4.12-4.446a13.783 13.783 0 01-1.48-6.258zm5.6-88.763l-83.99 115.276h21.57l83.99-115.276h-21.57zm33.4 26.514c0 5.269 1.26 10.155 3.79 14.656 2.63 4.392 6.2 7.905 10.7 10.54 4.5 2.635 9.55 3.952 15.15 3.952 5.71 0 10.76-1.317 15.15-3.952 4.5-2.635 8.02-6.148 10.54-10.54 2.53-4.501 3.79-9.387 3.79-14.656 0-5.49-1.26-10.43-3.79-14.822-2.52-4.391-6.04-7.85-10.54-10.375-4.39-2.635-9.44-3.952-15.15-3.952-5.6 0-10.65 1.317-15.15 3.952-4.5 2.525-8.07 5.984-10.7 10.375-2.53 4.392-3.79 9.332-3.79 14.822zm17.79 0c0-2.306.49-4.392 1.48-6.258.99-1.867 2.36-3.349 4.11-4.447 1.76-1.207 3.85-1.811 6.26-1.811 2.42 0 4.45.604 6.1 1.811 1.75 1.098 3.12 2.58 4.11 4.447.99 1.866 1.48 3.952 1.48 6.258 0 2.195-.49 4.281-1.48 6.257-.99 1.867-2.36 3.349-4.11 4.447-1.65 1.098-3.68 1.647-6.1 1.647-2.41 0-4.5-.549-6.26-1.647-1.75-1.098-3.12-2.58-4.11-4.447a13.782 13.782 0 01-1.48-6.257zm57.14 62.249c0 5.379 1.26 10.265 3.79 14.656 2.63 4.392 6.2 7.905 10.7 10.54 4.5 2.635 9.55 3.952 15.15 3.952 5.71 0 10.76-1.317 15.15-3.952 4.5-2.635 8.02-6.148 10.54-10.54 2.53-4.391 3.79-9.277 3.79-14.656 0-5.38-1.26-10.265-3.79-14.657-2.52-4.501-6.04-8.014-10.54-10.539-4.39-2.635-9.44-3.953-15.15-3.953-5.6 0-10.65 1.318-15.15 3.953-4.5 2.525-8.07 6.038-10.7 10.539-2.53 4.392-3.79 9.277-3.79 14.657zm17.79 0c0-2.306.49-4.392 1.48-6.258.99-1.866 2.36-3.349 4.11-4.446 1.76-1.098 3.85-1.647 6.26-1.647 2.42 0 4.45.549 6.1 1.647 1.75 1.097 3.12 2.58 4.11 4.446.99 1.866 1.48 3.952 1.48 6.258 0 2.196-.49 4.282-1.48 6.258-.99 1.866-2.36 3.348-4.11 4.446-1.65 1.098-3.68 1.647-6.1 1.647-2.41 0-4.5-.549-6.26-1.647-1.75-1.098-3.12-2.58-4.11-4.446a13.783 13.783 0 01-1.48-6.258zm5.59-88.763l-83.98 115.276h21.57l83.99-115.276h-21.58zm44.5 26.514c0 5.269 1.26 10.155 3.79 14.656 2.63 4.392 6.2 7.905 10.7 10.54 4.5 2.635 9.55 3.952 15.15 3.952 5.71 0 10.76-1.317 15.15-3.952 4.5-2.635 8.02-6.148 10.54-10.54 2.53-4.501 3.79-9.387 3.79-14.656 0-5.49-1.26-10.43-3.79-14.822-2.52-4.391-6.04-7.85-10.54-10.375-4.39-2.635-9.44-3.952-15.15-3.952-5.6 0-10.65 1.317-15.15 3.952-4.5 2.525-8.07 5.984-10.7 10.375-2.53 4.392-3.79 9.332-3.79 14.822zm17.78 0c0-2.306.5-4.392 1.49-6.258a11.444 11.444 0 014.11-4.447c1.76-1.207 3.85-1.811 6.26-1.811 2.42 0 4.45.604 6.09 1.811 1.76 1.098 3.13 2.58 4.12 4.447.99 1.866 1.48 3.952 1.48 6.258 0 2.195-.49 4.281-1.48 6.257-.99 1.867-2.36 3.349-4.12 4.447-1.64 1.098-3.67 1.647-6.09 1.647-2.41 0-4.5-.549-6.26-1.647a11.444 11.444 0 01-4.11-4.447 13.792 13.792 0 01-1.49-6.257zm57.15 62.249c0 5.379 1.26 10.265 3.79 14.656 2.63 4.392 6.2 7.905 10.7 10.54 4.5 2.635 9.55 3.952 15.15 3.952 5.71 0 10.76-1.317 15.15-3.952 4.5-2.635 8.02-6.148 10.54-10.54 2.53-4.391 3.79-9.277 3.79-14.656 0-5.38-1.26-10.265-3.79-14.657-2.52-4.501-6.04-8.014-10.54-10.539-4.39-2.635-9.44-3.953-15.15-3.953-5.6 0-10.65 1.318-15.15 3.953-4.5 2.525-8.07 6.038-10.7 10.539-2.53 4.392-3.79 9.277-3.79 14.657zm17.78 0c0-2.306.5-4.392 1.49-6.258a11.44 11.44 0 014.11-4.446c1.76-1.098 3.85-1.647 6.26-1.647 2.42 0 4.45.549 6.09 1.647 1.76 1.097 3.13 2.58 4.12 4.446.99 1.866 1.48 3.952 1.48 6.258 0 2.196-.49 4.282-1.48 6.258-.99 1.866-2.36 3.348-4.12 4.446-1.64 1.098-3.67 1.647-6.09 1.647-2.41 0-4.5-.549-6.26-1.647a11.448 11.448 0 01-4.11-4.446 13.793 13.793 0 01-1.49-6.258zm5.6-88.763l-83.98 115.276h21.57l83.99-115.276h-21.58zm44.5 26.514c0 5.269 1.26 10.155 3.79 14.656 2.63 4.392 6.2 7.905 10.7 10.54 4.5 2.635 9.55 3.952 15.15 3.952 5.71 0 10.76-1.317 15.15-3.952 4.5-2.635 8.02-6.148 10.54-10.54 2.53-4.501 3.79-9.387 3.79-14.656 0-5.49-1.26-10.43-3.79-14.822-2.52-4.391-6.04-7.85-10.54-10.375-4.39-2.635-9.44-3.952-15.15-3.952-5.6 0-10.65 1.317-15.15 3.952-4.5 2.525-8.07 5.984-10.7 10.375-2.53 4.392-3.79 9.332-3.79 14.822zm17.78 0c0-2.306.5-4.392 1.49-6.258a11.444 11.444 0 014.11-4.447c1.76-1.207 3.85-1.811 6.26-1.811 2.42 0 4.45.604 6.09 1.811 1.76 1.098 3.13 2.58 4.12 4.447.99 1.866 1.48 3.952 1.48 6.258 0 2.195-.49 4.281-1.48 6.257-.99 1.867-2.36 3.349-4.12 4.447-1.64 1.098-3.67 1.647-6.09 1.647-2.41 0-4.5-.549-6.26-1.647a11.444 11.444 0 01-4.11-4.447 13.792 13.792 0 01-1.49-6.257zm57.15 62.249c0 5.379 1.26 10.265 3.79 14.656 2.63 4.392 6.2 7.905 10.7 10.54 4.5 2.635 9.55 3.952 15.15 3.952 5.71 0 10.76-1.317 15.15-3.952 4.5-2.635 8.02-6.148 10.54-10.54 2.53-4.391 3.79-9.277 3.79-14.656 0-5.38-1.26-10.265-3.79-14.657-2.52-4.501-6.04-8.014-10.54-10.539-4.39-2.635-9.44-3.953-15.15-3.953-5.6 0-10.65 1.318-15.15 3.953-4.5 2.525-8.07 6.038-10.7 10.539-2.53 4.392-3.79 9.277-3.79 14.657zm17.78 0c0-2.306.5-4.392 1.49-6.258a11.44 11.44 0 014.11-4.446c1.76-1.098 3.85-1.647 6.26-1.647 2.42 0 4.45.549 6.09 1.647 1.76 1.097 3.13 2.58 4.12 4.446.99 1.866 1.48 3.952 1.48 6.258 0 2.196-.49 4.282-1.48 6.258-.99 1.866-2.36 3.348-4.12 4.446-1.64 1.098-3.67 1.647-6.09 1.647-2.41 0-4.5-.549-6.26-1.647a11.448 11.448 0 01-4.11-4.446 13.793 13.793 0 01-1.49-6.258zm5.6-88.763l-83.98 115.276h21.57l83.99-115.276h-21.58zm44.5 26.514c0 5.269 1.26 10.155 3.79 14.656 2.63 4.392 6.2 7.905 10.7 10.54 4.5 2.635 9.55 3.952 15.15 3.952 5.71 0 10.76-1.317 15.15-3.952 4.5-2.635 8.02-6.148 10.54-10.54 2.53-4.501 3.79-9.387 3.79-14.656 0-5.49-1.26-10.43-3.79-14.822-2.52-4.391-6.04-7.85-10.54-10.375-4.39-2.635-9.44-3.952-15.15-3.952-5.6 0-10.65 1.317-15.15 3.952-4.5 2.525-8.07 5.984-10.7 10.375-2.53 4.392-3.79 9.332-3.79 14.822zm17.78 0c0-2.306.5-4.392 1.49-6.258a11.444 11.444 0 014.11-4.447c1.76-1.207 3.84-1.811 6.26-1.811s4.45.604 6.09 1.811c1.76 1.098 3.13 2.58 4.12 4.447.99 1.866 1.48 3.952 1.48 6.258 0 2.195-.49 4.281-1.48 6.257-.99 1.867-2.36 3.349-4.12 4.447-1.64 1.098-3.67 1.647-6.09 1.647s-4.5-.549-6.26-1.647a11.444 11.444 0 01-4.11-4.447 13.792 13.792 0 01-1.49-6.257zm57.15 62.249c0 5.379 1.26 10.265 3.78 14.656 2.64 4.392 6.21 7.905 10.71 10.54 4.5 2.635 9.55 3.952 15.15 3.952 5.71 0 10.76-1.317 15.15-3.952 4.5-2.635 8.02-6.148 10.54-10.54 2.53-4.391 3.79-9.277 3.79-14.656 0-5.38-1.26-10.265-3.79-14.657-2.52-4.501-6.04-8.014-10.54-10.539-4.39-2.635-9.44-3.953-15.15-3.953-5.6 0-10.65 1.318-15.15 3.953-4.5 2.525-8.07 6.038-10.71 10.539-2.52 4.392-3.78 9.277-3.78 14.657zm17.78 0c0-2.306.5-4.392 1.48-6.258a11.54 11.54 0 014.12-4.446c1.76-1.098 3.84-1.647 6.26-1.647s4.45.549 6.09 1.647c1.76 1.097 3.13 2.58 4.12 4.446.99 1.866 1.48 3.952 1.48 6.258 0 2.196-.49 4.282-1.48 6.258-.99 1.866-2.36 3.348-4.12 4.446-1.64 1.098-3.67 1.647-6.09 1.647s-4.5-.549-6.26-1.647a11.548 11.548 0 01-4.12-4.446 13.913 13.913 0 01-1.48-6.258zm5.6-88.763l-83.99 115.276h21.58l83.99-115.276h-21.58zm44.5 26.514c0 5.269 1.26 10.155 3.78 14.656 2.64 4.392 6.21 7.905 10.71 10.54 4.5 2.635 9.55 3.952 15.15 3.952 5.71 0 10.76-1.317 15.15-3.952 4.5-2.635 8.01-6.148 10.54-10.54 2.52-4.501 3.79-9.387 3.79-14.656 0-5.49-1.27-10.43-3.79-14.822-2.53-4.391-6.04-7.85-10.54-10.375-4.39-2.635-9.44-3.952-15.15-3.952-5.6 0-10.65 1.317-15.15 3.952-4.5 2.525-8.07 5.984-10.71 10.375-2.52 4.392-3.78 9.332-3.78 14.822zm17.78 0c0-2.306.5-4.392 1.48-6.258.99-1.867 2.36-3.349 4.12-4.447 1.76-1.207 3.84-1.811 6.26-1.811 2.41 0 4.45.604 6.09 1.811 1.76 1.098 3.13 2.58 4.12 4.447.99 1.866 1.48 3.952 1.48 6.258 0 2.195-.49 4.281-1.48 6.257-.99 1.867-2.36 3.349-4.12 4.447-1.64 1.098-3.68 1.647-6.09 1.647-2.42 0-4.5-.549-6.26-1.647-1.76-1.098-3.13-2.58-4.12-4.447a13.912 13.912 0 01-1.48-6.257zm57.15 62.249c0 5.379 1.26 10.265 3.78 14.656 2.64 4.392 6.21 7.905 10.71 10.54 4.5 2.635 9.55 3.952 15.15 3.952 5.71 0 10.76-1.317 15.15-3.952 4.5-2.635 8.01-6.148 10.54-10.54 2.52-4.391 3.79-9.277 3.79-14.656 0-5.38-1.27-10.265-3.79-14.657-2.53-4.501-6.04-8.014-10.54-10.539-4.39-2.635-9.44-3.953-15.15-3.953-5.6 0-10.65 1.318-15.15 3.953-4.5 2.525-8.07 6.038-10.71 10.539-2.52 4.392-3.78 9.277-3.78 14.657zm17.78 0c0-2.306.5-4.392 1.48-6.258.99-1.866 2.36-3.349 4.12-4.446 1.76-1.098 3.84-1.647 6.26-1.647 2.41 0 4.45.549 6.09 1.647 1.76 1.097 3.13 2.58 4.12 4.446.99 1.866 1.48 3.952 1.48 6.258 0 2.196-.49 4.282-1.48 6.258-.99 1.866-2.36 3.348-4.12 4.446-1.64 1.098-3.68 1.647-6.09 1.647-2.42 0-4.5-.549-6.26-1.647-1.76-1.098-3.13-2.58-4.12-4.446a13.913 13.913 0 01-1.48-6.258zm5.6-88.763l-83.99 115.276h21.58l83.98-115.276h-21.57zm44.5 26.514c0 5.269 1.26 10.155 3.78 14.656 2.64 4.392 6.21 7.905 10.71 10.54 4.5 2.635 9.55 3.952 15.15 3.952 5.71 0 10.76-1.317 15.15-3.952 4.5-2.635 8.01-6.148 10.54-10.54 2.52-4.501 3.79-9.387 3.79-14.656 0-5.49-1.27-10.43-3.79-14.822-2.53-4.391-6.04-7.85-10.54-10.375-4.39-2.635-9.44-3.952-15.15-3.952-5.6 0-10.65 1.317-15.15 3.952-4.5 2.525-8.07 5.984-10.71 10.375-2.52 4.392-3.78 9.332-3.78 14.822zm17.78 0c0-2.306.5-4.392 1.48-6.258.99-1.867 2.36-3.349 4.12-4.447 1.76-1.207 3.84-1.811 6.26-1.811 2.41 0 4.44.604 6.09 1.811 1.76 1.098 3.13 2.58 4.12 4.447.99 1.866 1.48 3.952 1.48 6.258 0 2.195-.49 4.281-1.48 6.257-.99 1.867-2.36 3.349-4.12 4.447-1.65 1.098-3.68 1.647-6.09 1.647-2.42 0-4.5-.549-6.26-1.647-1.76-1.098-3.13-2.58-4.12-4.447a13.912 13.912 0 01-1.48-6.257zm57.15 62.249c0 5.379 1.26 10.265 3.78 14.656 2.64 4.392 6.21 7.905 10.71 10.54 4.5 2.635 9.55 3.952 15.15 3.952 5.71 0 10.76-1.317 15.15-3.952 4.5-2.635 8.01-6.148 10.54-10.54 2.52-4.391 3.79-9.277 3.79-14.656 0-5.38-1.27-10.265-3.79-14.657-2.53-4.501-6.04-8.014-10.54-10.539-4.39-2.635-9.44-3.953-15.15-3.953-5.6 0-10.65 1.318-15.15 3.953-4.5 2.525-8.07 6.038-10.71 10.539-2.52 4.392-3.78 9.277-3.78 14.657zm17.78 0c0-2.306.5-4.392 1.48-6.258.99-1.866 2.36-3.349 4.12-4.446 1.76-1.098 3.84-1.647 6.26-1.647 2.41 0 4.44.549 6.09 1.647 1.76 1.097 3.13 2.58 4.12 4.446.99 1.866 1.48 3.952 1.48 6.258 0 2.196-.49 4.282-1.48 6.258-.99 1.866-2.36 3.348-4.12 4.446-1.65 1.098-3.68 1.647-6.09 1.647-2.42 0-4.5-.549-6.26-1.647-1.76-1.098-3.13-2.58-4.12-4.446a13.913 13.913 0 01-1.48-6.258zm5.6-88.763l-83.99 115.276h21.58l83.98-115.276h-21.57zm44.5 26.514c0 5.269 1.26 10.155 3.78 14.656 2.64 4.392 6.21 7.905 10.71 10.54 4.5 2.635 9.55 3.952 15.15 3.952 5.71 0 10.76-1.317 15.15-3.952 4.5-2.635 8.01-6.148 10.54-10.54 2.52-4.501 3.79-9.387 3.79-14.656 0-5.49-1.27-10.43-3.79-14.822-2.53-4.391-6.04-7.85-10.54-10.375-4.39-2.635-9.44-3.952-15.15-3.952-5.6 0-10.65 1.317-15.15 3.952-4.5 2.525-8.07 5.984-10.71 10.375-2.52 4.392-3.78 9.332-3.78 14.822zm17.78 0c0-2.306.49-4.392 1.48-6.258.99-1.867 2.36-3.349 4.12-4.447 1.76-1.207 3.84-1.811 6.26-1.811 2.41 0 4.44.604 6.09 1.811 1.76 1.098 3.13 2.58 4.12 4.447.99 1.866 1.48 3.952 1.48 6.258 0 2.195-.49 4.281-1.48 6.257-.99 1.867-2.36 3.349-4.12 4.447-1.65 1.098-3.68 1.647-6.09 1.647-2.42 0-4.5-.549-6.26-1.647-1.76-1.098-3.13-2.58-4.12-4.447a13.782 13.782 0 01-1.48-6.257zm57.14 62.249c0 5.379 1.27 10.265 3.79 14.656 2.64 4.392 6.21 7.905 10.71 10.54 4.5 2.635 9.55 3.952 15.15 3.952 5.71 0 10.76-1.317 15.15-3.952 4.5-2.635 8.01-6.148 10.54-10.54 2.52-4.391 3.79-9.277 3.79-14.656 0-5.38-1.27-10.265-3.79-14.657-2.53-4.501-6.04-8.014-10.54-10.539-4.39-2.635-9.44-3.953-15.15-3.953-5.6 0-10.65 1.318-15.15 3.953-4.5 2.525-8.07 6.038-10.71 10.539-2.52 4.392-3.79 9.277-3.79 14.657zm17.79 0c0-2.306.49-4.392 1.48-6.258.99-1.866 2.36-3.349 4.12-4.446 1.76-1.098 3.84-1.647 6.26-1.647 2.41 0 4.44.549 6.09 1.647 1.76 1.097 3.13 2.58 4.12 4.446.99 1.866 1.48 3.952 1.48 6.258 0 2.196-.49 4.282-1.48 6.258-.99 1.866-2.36 3.348-4.12 4.446-1.65 1.098-3.68 1.647-6.09 1.647-2.42 0-4.5-.549-6.26-1.647-1.76-1.098-3.13-2.58-4.12-4.446a13.783 13.783 0 01-1.48-6.258zm5.6-88.763l-83.99 115.276h21.58l83.98-115.276h-21.57zm44.49 26.514c0 5.269 1.27 10.155 3.79 14.656 2.64 4.392 6.2 7.905 10.71 10.54 4.5 2.635 9.55 3.952 15.15 3.952 5.71 0 10.76-1.317 15.15-3.952 4.5-2.635 8.01-6.148 10.54-10.54 2.52-4.501 3.78-9.387 3.78-14.656 0-5.49-1.26-10.43-3.78-14.822-2.53-4.391-6.04-7.85-10.54-10.375-4.39-2.635-9.44-3.952-15.15-3.952-5.6 0-10.65 1.317-15.15 3.952-4.51 2.525-8.07 5.984-10.71 10.375-2.52 4.392-3.79 9.332-3.79 14.822zm17.79 0c0-2.306.49-4.392 1.48-6.258.99-1.867 2.36-3.349 4.12-4.447 1.76-1.207 3.84-1.811 6.26-1.811 2.41 0 4.44.604 6.09 1.811 1.76 1.098 3.13 2.58 4.12 4.447.99 1.866 1.48 3.952 1.48 6.258 0 2.195-.49 4.281-1.48 6.257-.99 1.867-2.36 3.349-4.12 4.447-1.65 1.098-3.68 1.647-6.09 1.647-2.42 0-4.5-.549-6.26-1.647-1.76-1.098-3.13-2.58-4.12-4.447a13.782 13.782 0 01-1.48-6.257zm57.14 62.249c0 5.379 1.27 10.265 3.79 14.656 2.64 4.392 6.2 7.905 10.71 10.54 4.5 2.635 9.55 3.952 15.15 3.952 5.71 0 10.76-1.317 15.15-3.952 4.5-2.635 8.01-6.148 10.54-10.54 2.52-4.391 3.78-9.277 3.78-14.656 0-5.38-1.26-10.265-3.78-14.657-2.53-4.501-6.04-8.014-10.54-10.539-4.39-2.635-9.44-3.953-15.15-3.953-5.6 0-10.65 1.318-15.15 3.953-4.51 2.525-8.07 6.038-10.71 10.539-2.52 4.392-3.79 9.277-3.79 14.657zm17.79 0c0-2.306.49-4.392 1.48-6.258.99-1.866 2.36-3.349 4.12-4.446 1.76-1.098 3.84-1.647 6.26-1.647 2.41 0 4.44.549 6.09 1.647 1.76 1.097 3.13 2.58 4.12 4.446.98 1.866 1.48 3.952 1.48 6.258 0 2.196-.5 4.282-1.48 6.258-.99 1.866-2.36 3.348-4.12 4.446-1.65 1.098-3.68 1.647-6.09 1.647-2.42 0-4.5-.549-6.26-1.647-1.76-1.098-3.13-2.58-4.12-4.446a13.783 13.783 0 01-1.48-6.258zm5.6-88.763l-83.99 115.276h21.57l83.99-115.276h-21.57zm44.49 26.514c0 5.269 1.27 10.155 3.79 14.656 2.64 4.392 6.2 7.905 10.71 10.54 4.5 2.635 9.55 3.952 15.15 3.952 5.7 0 10.76-1.317 15.15-3.952 4.5-2.635 8.01-6.148 10.54-10.54 2.52-4.501 3.78-9.387 3.78-14.656 0-5.49-1.26-10.43-3.78-14.822-2.53-4.391-6.04-7.85-10.54-10.375-4.39-2.635-9.45-3.952-15.15-3.952-5.6 0-10.65 1.317-15.15 3.952-4.51 2.525-8.07 5.984-10.71 10.375-2.52 4.392-3.79 9.332-3.79 14.822zm17.79 0c0-2.306.49-4.392 1.48-6.258.99-1.867 2.36-3.349 4.12-4.447 1.75-1.207 3.84-1.811 6.26-1.811 2.41 0 4.44.604 6.09 1.811 1.76 1.098 3.13 2.58 4.12 4.447.98 1.866 1.48 3.952 1.48 6.258 0 2.195-.5 4.281-1.48 6.257-.99 1.867-2.36 3.349-4.12 4.447-1.65 1.098-3.68 1.647-6.09 1.647-2.42 0-4.51-.549-6.26-1.647-1.76-1.098-3.13-2.58-4.12-4.447a13.782 13.782 0 01-1.48-6.257zm57.14 62.249c0 5.379 1.27 10.265 3.79 14.656 2.64 4.392 6.2 7.905 10.71 10.54 4.5 2.635 9.55 3.952 15.15 3.952 5.7 0 10.75-1.317 15.15-3.952 4.5-2.635 8.01-6.148 10.54-10.54 2.52-4.391 3.78-9.277 3.78-14.656 0-5.38-1.26-10.265-3.78-14.657-2.53-4.501-6.04-8.014-10.54-10.539-4.4-2.635-9.45-3.953-15.15-3.953-5.6 0-10.65 1.318-15.15 3.953-4.51 2.525-8.07 6.038-10.71 10.539-2.52 4.392-3.79 9.277-3.79 14.657zm17.79 0c0-2.306.49-4.392 1.48-6.258.99-1.866 2.36-3.349 4.12-4.446 1.75-1.098 3.84-1.647 6.26-1.647 2.41 0 4.44.549 6.09 1.647 1.76 1.097 3.13 2.58 4.12 4.446.98 1.866 1.48 3.952 1.48 6.258 0 2.196-.5 4.282-1.48 6.258-.99 1.866-2.36 3.348-4.12 4.446-1.65 1.098-3.68 1.647-6.09 1.647-2.42 0-4.51-.549-6.26-1.647-1.76-1.098-3.13-2.58-4.12-4.446a13.783 13.783 0 01-1.48-6.258zm5.6-88.763l-83.99 115.276h21.57l83.99-115.276h-21.57zm44.49 26.514c0 5.269 1.27 10.155 3.79 14.656 2.64 4.392 6.2 7.905 10.7 10.54 4.51 2.635 9.56 3.952 15.16 3.952 5.7 0 10.75-1.317 15.15-3.952 4.5-2.635 8.01-6.148 10.54-10.54 2.52-4.501 3.78-9.387 3.78-14.656 0-5.49-1.26-10.43-3.78-14.822-2.53-4.391-6.04-7.85-10.54-10.375-4.4-2.635-9.45-3.952-15.15-3.952-5.6 0-10.65 1.317-15.16 3.952-4.5 2.525-8.06 5.984-10.7 10.375-2.52 4.392-3.79 9.332-3.79 14.822zm17.79 0c0-2.306.49-4.392 1.48-6.258.99-1.867 2.36-3.349 4.12-4.447 1.75-1.207 3.84-1.811 6.26-1.811 2.41 0 4.44.604 6.09 1.811a11.543 11.543 0 014.12 4.447c.98 1.866 1.48 3.952 1.48 6.258 0 2.195-.5 4.281-1.48 6.257a11.543 11.543 0 01-4.12 4.447c-1.65 1.098-3.68 1.647-6.09 1.647-2.42 0-4.51-.549-6.26-1.647-1.76-1.098-3.13-2.58-4.12-4.447a13.782 13.782 0 01-1.48-6.257zm57.14 62.249c0 5.379 1.26 10.265 3.79 14.656 2.63 4.392 6.2 7.905 10.7 10.54 4.51 2.635 9.56 3.952 15.15 3.952 5.71 0 10.76-1.317 15.16-3.952 4.5-2.635 8.01-6.148 10.54-10.54 2.52-4.391 3.78-9.277 3.78-14.656 0-5.38-1.26-10.265-3.78-14.657-2.53-4.501-6.04-8.014-10.54-10.539-4.4-2.635-9.45-3.953-15.16-3.953-5.59 0-10.64 1.318-15.15 3.953-4.5 2.525-8.07 6.038-10.7 10.539-2.53 4.392-3.79 9.277-3.79 14.657zm17.79 0c0-2.306.49-4.392 1.48-6.258.99-1.866 2.36-3.349 4.12-4.446 1.75-1.098 3.84-1.647 6.25-1.647 2.42 0 4.45.549 6.1 1.647a11.54 11.54 0 014.12 4.446c.98 1.866 1.48 3.952 1.48 6.258 0 2.196-.5 4.282-1.48 6.258a11.548 11.548 0 01-4.12 4.446c-1.65 1.098-3.68 1.647-6.1 1.647-2.41 0-4.5-.549-6.25-1.647-1.76-1.098-3.13-2.58-4.12-4.446a13.783 13.783 0 01-1.48-6.258zm5.6-88.763l-83.99 115.276h21.57l83.99-115.276h-21.57z"/></g></svg><svg viewBox="0 0 40 40" id="prew-arrow" xmlns="http://www.w3.org/2000/svg"><path fill-rule="evenodd" clip-rule="evenodd" d="M3.333 20c0 9.2 7.483 16.667 16.667 16.667l.466-.007c8.985-.247 16.2-7.616 16.2-16.66C36.666 10.817 29.2 3.333 20 3.333 10.816 3.333 3.333 10.817 3.333 20zM23.3 13.333c.483.5.483 1.284-.017 1.767L18.366 20l4.917 4.9c.5.483.5 1.283.017 1.767-.5.5-1.284.5-1.767 0l-5.817-5.784a1.249 1.249 0 010-1.766l5.817-5.784c.233-.25.55-.366.867-.366.333 0 .65.116.9.366z"/></svg></svg>